999
FreeCAD v0.20 29603 (Git)
  0
SECTION
  2
HEADER
  9
$ACADVER
  1
AC1014
  9
$ACADMAINTVER
 70
     9
  9
$DWGCODEPAGE
  3
ANSI_1252
  9
$TEXTSTYLE
  7
STANDARD
  9
$DIMSTYLE
  2
STANDARD
  9
$DIMTXSTY
  7
STANDARD
  9
$CMLSTYLE
  2
STANDARD
  9
$LUNITS
 70
2
  9
$INSUNITS
 70
4
  9
$PEXTMAX
 10
50
 20
50
 30
50
  9
$PEXTMIN
 10
0
 20
0
 30
0
  9
$HANDSEED
  5
FFFF
  0
ENDSEC
  0
SECTION
  2
CLASSES
  0
CLASS
  1
ACDBDICTIONARYWDFLT
  2
AcDbDictionaryWithDefault
  3
ObjectDBX Classes
 90
        0
280
     0
281
     0
  0
CLASS
  1
XRECORD
  2
AcDbXrecord
  3
ObjectDBX Classes
 90
        0
280
     0
281
     0
  0
CLASS
  1
LWPOLYLINE
  2
AcDbPolyline
  3
ObjectDBX Classes
 90
        0
280
     0
281
     1
  0
ENDSEC
  0
SECTION
  2
TABLES
  0
TABLE
  2
VPORT
  5
20
330
0
100
AcDbSymbolTable
 70
     1
  0
VPORT
  5
21
330
20
100
AcDbSymbolTableRecord
100
AcDbViewportTableRecord
  2
*ACTIVE
 70
     0
  0
ENDTAB
  0
TABLE
  2
LTYPE
  5
22
330
0
100
AcDbSymbolTable
 70
     1
  0
LTYPE
  5
23
330
21
100
AcDbSymbolTableRecord
100
AcDbLinetypeTableRecord
  2
BYBLOCK
 70
     0
  3

 72
    65
 73
     0
 40
0.0
  0
LTYPE
  5
24
330
21
100
AcDbSymbolTableRecord
100
AcDbLinetypeTableRecord
  2
BYLAYER
 70
     0
  3

 72
    65
 73
     0
 40
0.0
  0
LTYPE
  5
25
330
21
100
AcDbSymbolTableRecord
100
AcDbLinetypeTableRecord
  2
CONTINUOUS
 70
     0
  3
Solid line
 72
    65
 73
     0
 40
0.0
  0
ENDTAB
  0
TABLE
  2
LAYER
  5
A88
330
0
100
AcDbSymbolTable
 70
3
  0
LAYER
  5
A89
330
A88
100
AcDbSymbolTableRecord
100
AcDbLayerTableRecord
  2
0
 70
   0
 62
   7
  6
CONTINUOUS
  0
LAYER
  5
A8A
330
A88
100
AcDbSymbolTableRecord
100
AcDbLayerTableRecord
  2
none
 70
    0
 62
    7
  6
CONTINUOUS
  0
LAYER
  5
A8B
330
A88
100
AcDbSymbolTableRecord
100
AcDbLayerTableRecord
  2
Path
 70
    0
 62
    7
  6
CONTINUOUS
  0
ENDTAB
  0
TABLE
  2
STYLE
  5
70
330
0
100
AcDbSymbolTable
 70
     2
  0
STYLE
  5
71
330
70
100
AcDbSymbolTableRecord
100
AcDbTextStyleTableRecord
  2
STANDARD
 70
     0
 40
0.0
 41
1.0
 50
0.0
 71
     0
 42
2.5
  3
arial.ttf
  4

  0
STYLE
  5
72
330
70
100
AcDbSymbolTableRecord
100
AcDbTextStyleTableRecord
  2
ANNOTATIVE
 70
     0
 40
0.0
 41
1.0
 50
0.0
 71
     0
 42
2.5
  3
arial.ttf
  4

  0
ENDTAB
  0
TABLE
  2
VIEW
  5
73
330
0
100
AcDbSymbolTable
 70
     0
  0
ENDTAB
  0
TABLE
  2
UCS
  5
74
330
0
100
AcDbSymbolTable
 70
     0
  0
ENDTAB
  0
TABLE
  2
APPID
  5
75
330
0
100
AcDbSymbolTable
 70
     2
  0
APPID
  5
76
330
75
100
AcDbSymbolTableRecord
100
AcDbRegAppTableRecord
  2
ACAD
 70
     0
  0
APPID
  5
77
330
75
100
AcDbSymbolTableRecord
100
AcDbRegAppTableRecord
  2
ACADANNOTATIVE
 70
     0
  0
ENDTAB
  0
TABLE
  2
DIMSTYLE
  5
78
330
0
100
AcDbSymbolTable
 70
     2
  0
DIMSTYLE
105
79
330
78
100
AcDbSymbolTableRecord
100
AcDbDimStyleTableRecord
  2
STANDARD
 70
     0
  3

  4

  5

  6

  7

 40
0.0
 41
2.5
 42
0.625
 43
3.75
 44
1.25
 45
0.0
 46
0.0
 47
0.0
 48
0.0
140
2.5
141
2.5
142
0.0
143
0.03937007874016
144
1.0
145
0.0
146
1.0
147
0.625
 71
     0
 72
     0
 73
     0
 74
     0
 75
     0
 76
     0
 77
     1
 78
     8
170
     0
171
     3
172
     1
173
     0
174
     0
175
     0
176
     0
177
     0
178
     0
270
     2
271
     2
272
     2
273
     2
274
     3
340
71
275
     0
280
     0
281
     0
282
     0
283
     0
284
     8
285
     0
286
     0
287
     3
288
     0
  0
ENDTAB
  0
TABLE
  2
BLOCK_RECORD
  5
A01
330
0
100
AcDbSymbolTable
  70
5
  0
BLOCK_RECORD
  5
A02
330
A01
100
AcDbSymbolTableRecord
100
AcDbBlockTableRecord
  2
*MODEL_SPACE
  0
BLOCK_RECORD
  5
A03
330
A01
100
AcDbSymbolTableRecord
100
AcDbBlockTableRecord
  2
*PAPER_SPACE
  0
ENDTAB
  0
ENDSEC
  0
SECTION
  2
BLOCKS
  0
BLOCK
  5
A04
330
A02
100
AcDbEntity
  8
0
100
AcDbBlockBegin
  2
*MODEL_SPACE
 70
   0
 10
0
 20
0
 30
0
  3
*MODEL_SPACE
  1
 
  0
ENDBLK
  5
A05
330
A02
100
AcDbEntity
  8
0
100
AcDbBlockEnd
  0
BLOCK
  5
A06
330
A03
100
AcDbEntity
 67
1
  8
0
100
AcDbBlockBegin
  2
*PAPER_SPACE
 70
   0
 10
0
 20
0
 30
0
  3
*PAPER_SPACE
  1
 
  0
ENDBLK
  5
A07
330
A03
100
AcDbEntity
 67
    1
  8
0
100
AcDbBlockEnd
  0
ENDSEC
  0
SECTION
  2
ENTITIES
  0
SPLINE
  5
A08
330
A02
100
AcDbEntity
  8
Path
100
AcDbSpline
210
0
220
0
230
1
 70
8
 71
1
 72
4
 73
2
 74
0
 40
0
 40
0
 40
0.0608276
 40
0.0608276
 10
103
 20
-9.2779
 30
0
 10
102.94
 20
-9.2679
 30
0
  0
SPLINE
  5
A09
330
A02
100
AcDbEntity
  8
Path
100
AcDbSpline
210
0
220
0
230
1
 70
8
 71
1
 72
4
 73
2
 74
0
 40
0
 40
0
 40
0.184391
 40
0.184391
 10
102.94
 20
-9.2679
 30
0
 10
102.76
 20
-9.2279
 30
0
  0
SPLINE
  5
A0A
330
A02
100
AcDbEntity
  8
Path
100
AcDbSpline
210
0
220
0
230
1
 70
8
 71
1
 72
4
 73
2
 74
0
 40
0
 40
0
 40
0.305941
 40
0.305941
 10
102.76
 20
-9.2279
 30
0
 10
102.46
 20
-9.1679
 30
0
  0
SPLINE
  5
A0B
330
A02
100
AcDbEntity
  8
Path
100
AcDbSpline
210
0
220
0
230
1
 70
8
 71
1
 72
4
 73
2
 74
0
 40
0
 40
0
 40
0.429535
 40
0.429535
 10
102.46
 20
-9.1679
 30
0
 10
102.04
 20
-9.0779
 30
0
  0
SPLINE
  5
A0C
330
A02
100
AcDbEntity
  8
Path
100
AcDbSpline
210
0
220
0
230
1
 70
8
 71
1
 72
4
 73
2
 74
0
 40
0
 40
0
 40
0.55109
 40
0.55109
 10
102.04
 20
-9.0779
 30
0
 10
101.5
 20
-8.9679
 30
0
  0
SPLINE
  5
A0D
330
A02
100
AcDbEntity
  8
Path
100
AcDbSpline
210
0
220
0
230
1
 70
8
 71
1
 72
4
 73
2
 74
0
 40
0
 40
0
 40
0.662873
 40
0.662873
 10
101.5
 20
-8.9679
 30
0
 10
100.85
 20
-8.8379
 30
0
  0
SPLINE
  5
A0E
330
A02
100
AcDbEntity
  8
Path
100
AcDbSpline
210
0
220
0
230
1
 70
8
 71
1
 72
4
 73
2
 74
0
 40
0
 40
0
 40
0.784474
 40
0.784474
 10
100.85
 20
-8.8379
 30
0
 10
100.08
 20
-8.6879
 30
0
  0
SPLINE
  5
A0F
330
A02
100
AcDbEntity
  8
Path
100
AcDbSpline
210
0
220
0
230
1
 70
8
 71
1
 72
4
 73
2
 74
0
 40
0
 40
0
 40
0.906091
 40
0.906091
 10
100.08
 20
-8.6879
 30
0
 10
99.19
 20
-8.5179
 30
0
  0
SPLINE
  5
A10
330
A02
100
AcDbEntity
  8
Path
100
AcDbSpline
210
0
220
0
230
1
 70
8
 71
1
 72
4
 73
2
 74
0
 40
0
 40
0
 40
1.00807
 40
1.00807
 10
99.19
 20
-8.5179
 30
0
 10
98.2
 20
-8.3279
 30
0
  0
SPLINE
  5
A11
330
A02
100
AcDbEntity
  8
Path
100
AcDbSpline
210
0
220
0
230
1
 70
8
 71
1
 72
4
 73
2
 74
0
 40
0
 40
0
 40
1.11987
 40
1.11987
 10
98.2
 20
-8.3279
 30
0
 10
97.1
 20
-8.1179
 30
0
  0
SPLINE
  5
A12
330
A02
100
AcDbEntity
  8
Path
100
AcDbSpline
210
0
220
0
230
1
 70
8
 71
1
 72
4
 73
2
 74
0
 40
0
 40
0
 40
1.22984
 40
1.22984
 10
97.1
 20
-8.1179
 30
0
 10
95.89
 20
-7.8979
 30
0
  0
SPLINE
  5
A13
330
A02
100
AcDbEntity
  8
Path
100
AcDbSpline
210
0
220
0
230
1
 70
8
 71
1
 72
4
 73
2
 74
0
 40
0
 40
0
 40
1.33989
 40
1.33989
 10
95.89
 20
-7.8979
 30
0
 10
94.57
 20
-7.6679
 30
0
  0
SPLINE
  5
A14
330
A02
100
AcDbEntity
  8
Path
100
AcDbSpline
210
0
220
0
230
1
 70
8
 71
1
 72
4
 73
2
 74
0
 40
0
 40
0
 40
1.43199
 40
1.43199
 10
94.57
 20
-7.6679
 30
0
 10
93.16
 20
-7.4179
 30
0
  0
SPLINE
  5
A15
330
A02
100
AcDbEntity
  8
Path
100
AcDbSpline
210
0
220
0
230
1
 70
8
 71
1
 72
4
 73
2
 74
0
 40
0
 40
0
 40
1.53222
 40
1.53222
 10
93.16
 20
-7.4179
 30
0
 10
91.65
 20
-7.1579
 30
0
  0
SPLINE
  5
A16
330
A02
100
AcDbEntity
  8
Path
100
AcDbSpline
210
0
220
0
230
1
 70
8
 71
1
 72
4
 73
2
 74
0
 40
0
 40
0
 40
1.62099
 40
1.62099
 10
91.65
 20
-7.1579
 30
0
 10
90.05
 20
-6.8979
 30
0
  0
SPLINE
  5
A17
330
A02
100
AcDbEntity
  8
Path
100
AcDbSpline
210
0
220
0
230
1
 70
8
 71
1
 72
4
 73
2
 74
0
 40
0
 40
0
 40
1.71304
 40
1.71304
 10
90.05
 20
-6.8979
 30
0
 10
88.36
 20
-6.6179
 30
0
  0
SPLINE
  5
A18
330
A02
100
AcDbEntity
  8
Path
100
AcDbSpline
210
0
220
0
230
1
 70
8
 71
1
 72
4
 73
2
 74
0
 40
0
 40
0
 40
1.80036
 40
1.80036
 10
88.36
 20
-6.6179
 30
0
 10
86.58
 20
-6.3479
 30
0
  0
SPLINE
  5
A19
330
A02
100
AcDbEntity
  8
Path
100
AcDbSpline
210
0
220
0
230
1
 70
8
 71
1
 72
4
 73
2
 74
0
 40
0
 40
0
 40
1.88247
 40
1.88247
 10
86.58
 20
-6.3479
 30
0
 10
84.72
 20
-6.0579
 30
0
  0
SPLINE
  5
A1A
330
A02
100
AcDbEntity
  8
Path
100
AcDbSpline
210
0
220
0
230
1
 70
8
 71
1
 72
4
 73
2
 74
0
 40
0
 40
0
 40
1.95021
 40
1.95021
 10
84.72
 20
-6.0579
 30
0
 10
82.79
 20
-5.7779
 30
0
  0
SPLINE
  5
A1B
330
A02
100
AcDbEntity
  8
Path
100
AcDbSpline
210
0
220
0
230
1
 70
8
 71
1
 72
4
 73
2
 74
0
 40
0
 40
0
 40
2.02941
 40
2.02941
 10
82.79
 20
-5.7779
 30
0
 10
80.78
 20
-5.4979
 30
0
  0
SPLINE
  5
A1C
330
A02
100
AcDbEntity
  8
Path
100
AcDbSpline
210
0
220
0
230
1
 70
8
 71
1
 72
4
 73
2
 74
0
 40
0
 40
0
 40
2.08885
 40
2.08885
 10
80.78
 20
-5.4979
 30
0
 10
78.71
 20
-5.2179
 30
0
  0
SPLINE
  5
A1D
330
A02
100
AcDbEntity
  8
Path
100
AcDbSpline
210
0
220
0
230
1
 70
8
 71
1
 72
4
 73
2
 74
0
 40
0
 40
0
 40
2.15824
 40
2.15824
 10
78.71
 20
-5.2179
 30
0
 10
76.57
 20
-4.9379
 30
0
  0
SPLINE
  5
A1E
330
A02
100
AcDbEntity
  8
Path
100
AcDbSpline
210
0
220
0
230
1
 70
8
 71
1
 72
4
 73
2
 74
0
 40
0
 40
0
 40
2.20538
 40
2.20538
 10
76.57
 20
-4.9379
 30
0
 10
74.38
 20
-4.6779
 30
0
  0
SPLINE
  5
A1F
330
A02
100
AcDbEntity
  8
Path
100
AcDbSpline
210
0
220
0
230
1
 70
8
 71
1
 72
4
 73
2
 74
0
 40
0
 40
0
 40
2.26497
 40
2.26497
 10
74.38
 20
-4.6779
 30
0
 10
72.13
 20
-4.4179
 30
0
  0
SPLINE
  5
A20
330
A02
100
AcDbEntity
  8
Path
100
AcDbSpline
210
0
220
0
230
1
 70
8
 71
1
 72
4
 73
2
 74
0
 40
0
 40
0
 40
2.30254
 40
2.30254
 10
72.13
 20
-4.4179
 30
0
 10
69.84
 20
-4.1779
 30
0
  0
SPLINE
  5
A21
330
A02
100
AcDbEntity
  8
Path
100
AcDbSpline
210
0
220
0
230
1
 70
8
 71
1
 72
4
 73
2
 74
0
 40
0
 40
0
 40
2.34132
 40
2.34132
 10
69.84
 20
-4.1779
 30
0
 10
67.51
 20
-3.9479
 30
0
  0
SPLINE
  5
A22
330
A02
100
AcDbEntity
  8
Path
100
AcDbSpline
210
0
220
0
230
1
 70
8
 71
1
 72
4
 73
2
 74
0
 40
0
 40
0
 40
2.36846
 40
2.36846
 10
67.51
 20
-3.9479
 30
0
 10
65.15
 20
-3.7479
 30
0
  0
SPLINE
  5
A23
330
A02
100
AcDbEntity
  8
Path
100
AcDbSpline
210
0
220
0
230
1
 70
8
 71
1
 72
4
 73
2
 74
0
 40
0
 40
0
 40
2.40751
 40
2.40751
 10
65.15
 20
-3.7479
 30
0
 10
62.75
 20
-3.5579
 30
0
  0
SPLINE
  5
A24
330
A02
100
AcDbEntity
  8
Path
100
AcDbSpline
210
0
220
0
230
1
 70
8
 71
1
 72
4
 73
2
 74
0
 40
0
 40
0
 40
2.41531
 40
2.41531
 10
62.75
 20
-3.5579
 30
0
 10
60.34
 20
-3.3979
 30
0
  0
SPLINE
  5
A25
330
A02
100
AcDbEntity
  8
Path
100
AcDbSpline
210
0
220
0
230
1
 70
8
 71
1
 72
4
 73
2
 74
0
 40
0
 40
0
 40
2.44401
 40
2.44401
 10
60.34
 20
-3.3979
 30
0
 10
57.9
 20
-3.2579
 30
0
  0
SPLINE
  5
A26
330
A02
100
AcDbEntity
  8
Path
100
AcDbSpline
210
0
220
0
230
1
 70
8
 71
1
 72
4
 73
2
 74
0
 40
0
 40
0
 40
2.45247
 40
2.45247
 10
57.9
 20
-3.2579
 30
0
 10
55.45
 20
-3.1479
 30
0
  0
SPLINE
  5
A27
330
A02
100
AcDbEntity
  8
Path
100
AcDbSpline
210
0
220
0
230
1
 70
8
 71
1
 72
4
 73
2
 74
0
 40
0
 40
0
 40
2.451
 40
2.451
 10
55.45
 20
-3.1479
 30
0
 10
53
 20
-3.0779
 30
0
  0
SPLINE
  5
A28
330
A02
100
AcDbEntity
  8
Path
100
AcDbSpline
210
0
220
0
230
1
 70
8
 71
1
 72
4
 73
2
 74
0
 40
0
 40
0
 40
2.45051
 40
2.45051
 10
53
 20
-3.0779
 30
0
 10
50.55
 20
-3.0279
 30
0
  0
SPLINE
  5
A29
330
A02
100
AcDbEntity
  8
Path
100
AcDbSpline
210
0
220
0
230
1
 70
8
 71
1
 72
4
 73
2
 74
0
 40
0
 40
0
 40
2.45018
 40
2.45018
 10
50.55
 20
-3.0279
 30
0
 10
48.1
 20
-2.9979
 30
0
  0
SPLINE
  5
A2A
330
A02
100
AcDbEntity
  8
Path
100
AcDbSpline
210
0
220
0
230
1
 70
8
 71
1
 72
4
 73
2
 74
0
 40
0
 40
0
 40
2.44
 40
2.44
 10
48.1
 20
-2.9979
 30
0
 10
45.66
 20
-2.9979
 30
0
  0
SPLINE
  5
A2B
330
A02
100
AcDbEntity
  8
Path
100
AcDbSpline
210
0
220
0
230
1
 70
8
 71
1
 72
4
 73
2
 74
0
 40
0
 40
0
 40
2.41008
 40
2.41008
 10
45.66
 20
-2.9979
 30
0
 10
43.25
 20
-3.0179
 30
0
  0
SPLINE
  5
A2C
330
A02
100
AcDbEntity
  8
Path
100
AcDbSpline
210
0
220
0
230
1
 70
8
 71
1
 72
4
 73
2
 74
0
 40
0
 40
0
 40
2.40052
 40
2.40052
 10
43.25
 20
-3.0179
 30
0
 10
40.85
 20
-3.0679
 30
0
  0
SPLINE
  5
A2D
330
A02
100
AcDbEntity
  8
Path
100
AcDbSpline
210
0
220
0
230
1
 70
8
 71
1
 72
4
 73
2
 74
0
 40
0
 40
0
 40
2.36076
 40
2.36076
 10
40.85
 20
-3.0679
 30
0
 10
38.49
 20
-3.1279
 30
0
  0
SPLINE
  5
A2E
330
A02
100
AcDbEntity
  8
Path
100
AcDbSpline
210
0
220
0
230
1
 70
8
 71
1
 72
4
 73
2
 74
0
 40
0
 40
0
 40
2.33137
 40
2.33137
 10
38.49
 20
-3.1279
 30
0
 10
36.16
 20
-3.2079
 30
0
  0
SPLINE
  5
A2F
330
A02
100
AcDbEntity
  8
Path
100
AcDbSpline
210
0
220
0
230
1
 70
8
 71
1
 72
4
 73
2
 74
0
 40
0
 40
0
 40
2.29264
 40
2.29264
 10
36.16
 20
-3.2079
 30
0
 10
33.87
 20
-3.3179
 30
0
  0
SPLINE
  5
A30
330
A02
100
AcDbEntity
  8
Path
100
AcDbSpline
210
0
220
0
230
1
 70
8
 71
1
 72
4
 73
2
 74
0
 40
0
 40
0
 40
2.2532
 40
2.2532
 10
33.87
 20
-3.3179
 30
0
 10
31.62
 20
-3.4379
 30
0
  0
SPLINE
  5
A31
330
A02
100
AcDbEntity
  8
Path
100
AcDbSpline
210
0
220
0
230
1
 70
8
 71
1
 72
4
 73
2
 74
0
 40
0
 40
0
 40
2.19447
 40
2.19447
 10
31.62
 20
-3.4379
 30
0
 10
29.43
 20
-3.5779
 30
0
  0
SPLINE
  5
A32
330
A02
100
AcDbEntity
  8
Path
100
AcDbSpline
210
0
220
0
230
1
 70
8
 71
1
 72
4
 73
2
 74
0
 40
0
 40
0
 40
2.14525
 40
2.14525
 10
29.43
 20
-3.5779
 30
0
 10
27.29
 20
-3.7279
 30
0
  0
SPLINE
  5
A33
330
A02
100
AcDbEntity
  8
Path
100
AcDbSpline
210
0
220
0
230
1
 70
8
 71
1
 72
4
 73
2
 74
0
 40
0
 40
0
 40
2.07697
 40
2.07697
 10
27.29
 20
-3.7279
 30
0
 10
25.22
 20
-3.8979
 30
0
  0
SPLINE
  5
A34
330
A02
100
AcDbEntity
  8
Path
100
AcDbSpline
210
0
220
0
230
1
 70
8
 71
1
 72
4
 73
2
 74
0
 40
0
 40
0
 40
2.009
 40
2.009
 10
25.22
 20
-3.8979
 30
0
 10
23.22
 20
-4.0879
 30
0
  0
SPLINE
  5
A35
330
A02
100
AcDbEntity
  8
Path
100
AcDbSpline
210
0
220
0
230
1
 70
8
 71
1
 72
4
 73
2
 74
0
 40
0
 40
0
 40
1.95028
 40
1.95028
 10
23.22
 20
-4.0879
 30
0
 10
21.28
 20
-4.2879
 30
0
  0
SPLINE
  5
A36
330
A02
100
AcDbEntity
  8
Path
100
AcDbSpline
210
0
220
0
230
1
 70
8
 71
1
 72
4
 73
2
 74
0
 40
0
 40
0
 40
1.87297
 40
1.87297
 10
21.28
 20
-4.2879
 30
0
 10
19.42
 20
-4.5079
 30
0
  0
SPLINE
  5
A37
330
A02
100
AcDbEntity
  8
Path
100
AcDbSpline
210
0
220
0
230
1
 70
8
 71
1
 72
4
 73
2
 74
0
 40
0
 40
0
 40
1.79354
 40
1.79354
 10
19.42
 20
-4.5079
 30
0
 10
17.64
 20
-4.7279
 30
0
  0
SPLINE
  5
A38
330
A02
100
AcDbEntity
  8
Path
100
AcDbSpline
210
0
220
0
230
1
 70
8
 71
1
 72
4
 73
2
 74
0
 40
0
 40
0
 40
1.70696
 40
1.70696
 10
17.64
 20
-4.7279
 30
0
 10
15.95
 20
-4.9679
 30
0
  0
SPLINE
  5
A39
330
A02
100
AcDbEntity
  8
Path
100
AcDbSpline
210
0
220
0
230
1
 70
8
 71
1
 72
4
 73
2
 74
0
 40
0
 40
0
 40
1.61941
 40
1.61941
 10
15.95
 20
-4.9679
 30
0
 10
14.35
 20
-5.2179
 30
0
  0
SPLINE
  5
A3A
330
A02
100
AcDbEntity
  8
Path
100
AcDbSpline
210
0
220
0
230
1
 70
8
 71
1
 72
4
 73
2
 74
0
 40
0
 40
0
 40
1.53222
 40
1.53222
 10
14.35
 20
-5.2179
 30
0
 10
12.84
 20
-5.4779
 30
0
  0
SPLINE
  5
A3B
330
A02
100
AcDbEntity
  8
Path
100
AcDbSpline
210
0
220
0
230
1
 70
8
 71
1
 72
4
 73
2
 74
0
 40
0
 40
0
 40
1.43377
 40
1.43377
 10
12.84
 20
-5.4779
 30
0
 10
11.43
 20
-5.7379
 30
0
  0
SPLINE
  5
A3C
330
A02
100
AcDbEntity
  8
Path
100
AcDbSpline
210
0
220
0
230
1
 70
8
 71
1
 72
4
 73
2
 74
0
 40
0
 40
0
 40
1.34937
 40
1.34937
 10
11.43
 20
-5.7379
 30
0
 10
10.11
 20
-6.0179
 30
0
  0
SPLINE
  5
A3D
330
A02
100
AcDbEntity
  8
Path
100
AcDbSpline
210
0
220
0
230
1
 70
8
 71
1
 72
4
 73
2
 74
0
 40
0
 40
0
 40
1.23976
 40
1.23976
 10
10.11
 20
-6.0179
 30
0
 10
8.9
 20
-6.2879
 30
0
  0
SPLINE
  5
A3E
330
A02
100
AcDbEntity
  8
Path
100
AcDbSpline
210
0
220
0
230
1
 70
8
 71
1
 72
4
 73
2
 74
0
 40
0
 40
0
 40
1.13508
 40
1.13508
 10
8.9
 20
-6.2879
 30
0
 10
7.8
 20
-6.5679
 30
0
  0
SPLINE
  5
A3F
330
A02
100
AcDbEntity
  8
Path
100
AcDbSpline
210
0
220
0
230
1
 70
8
 71
1
 72
4
 73
2
 74
0
 40
0
 40
0
 40
1.0316
 40
1.0316
 10
7.8
 20
-6.5679
 30
0
 10
6.81
 20
-6.8579
 30
0
  0
SPLINE
  5
A40
330
A02
100
AcDbEntity
  8
Path
100
AcDbSpline
210
0
220
0
230
1
 70
8
 71
1
 72
4
 73
2
 74
0
 40
0
 40
0
 40
0.936056
 40
0.936056
 10
6.81
 20
-6.8579
 30
0
 10
5.92
 20
-7.1479
 30
0
  0
SPLINE
  5
A41
330
A02
100
AcDbEntity
  8
Path
100
AcDbSpline
210
0
220
0
230
1
 70
8
 71
1
 72
4
 73
2
 74
0
 40
0
 40
0
 40
0.8228
 40
0.8228
 10
5.92
 20
-7.1479
 30
0
 10
5.15
 20
-7.4379
 30
0
  0
SPLINE
  5
A42
330
A02
100
AcDbEntity
  8
Path
100
AcDbSpline
210
0
220
0
230
1
 70
8
 71
1
 72
4
 73
2
 74
0
 40
0
 40
0
 40
0.711758
 40
0.711758
 10
5.15
 20
-7.4379
 30
0
 10
4.5
 20
-7.7279
 30
0
  0
SPLINE
  5
A43
330
A02
100
AcDbEntity
  8
Path
100
AcDbSpline
210
0
220
0
230
1
 70
8
 71
1
 72
4
 73
2
 74
0
 40
0
 40
0
 40
0.617738
 40
0.617738
 10
4.5
 20
-7.7279
 30
0
 10
3.96
 20
-8.0279
 30
0
  0
SPLINE
  5
A44
330
A02
100
AcDbEntity
  8
Path
100
AcDbSpline
210
0
220
0
230
1
 70
8
 71
1
 72
4
 73
2
 74
0
 40
0
 40
0
 40
0.522015
 40
0.522015
 10
3.96
 20
-8.0279
 30
0
 10
3.54
 20
-8.3379
 30
0
  0
SPLINE
  5
A45
330
A02
100
AcDbEntity
  8
Path
100
AcDbSpline
210
0
220
0
230
1
 70
8
 71
1
 72
4
 73
2
 74
0
 40
0
 40
0
 40
0.431393
 40
0.431393
 10
3.54
 20
-8.3379
 30
0
 10
3.24
 20
-8.6479
 30
0
  0
SPLINE
  5
A46
330
A02
100
AcDbEntity
  8
Path
100
AcDbSpline
210
0
220
0
230
1
 70
8
 71
1
 72
4
 73
2
 74
0
 40
0
 40
0
 40
0.358469
 40
0.358469
 10
3.24
 20
-8.6479
 30
0
 10
3.06
 20
-8.9579
 30
0
  0
SPLINE
  5
A47
330
A02
100
AcDbEntity
  8
Path
100
AcDbSpline
210
0
220
0
230
1
 70
8
 71
1
 72
4
 73
2
 74
0
 40
0
 40
0
 40
0.325576
 40
0.325576
 10
3.06
 20
-8.9579
 30
0
 10
3
 20
-9.2779
 30
0
  0
SPLINE
  5
A48
330
A02
100
AcDbEntity
  8
Path
100
AcDbSpline
210
0
220
0
230
1
 70
8
 71
1
 72
4
 73
2
 74
0
 40
0
 40
0
 40
0.325576
 40
0.325576
 10
3
 20
-9.2779
 30
0
 10
3.06
 20
-9.5979
 30
0
  0
SPLINE
  5
A49
330
A02
100
AcDbEntity
  8
Path
100
AcDbSpline
210
0
220
0
230
1
 70
8
 71
1
 72
4
 73
2
 74
0
 40
0
 40
0
 40
0.358469
 40
0.358469
 10
3.06
 20
-9.5979
 30
0
 10
3.24
 20
-9.9079
 30
0
  0
SPLINE
  5
A4A
330
A02
100
AcDbEntity
  8
Path
100
AcDbSpline
210
0
220
0
230
1
 70
8
 71
1
 72
4
 73
2
 74
0
 40
0
 40
0
 40
0.431393
 40
0.431393
 10
3.24
 20
-9.9079
 30
0
 10
3.54
 20
-10.2179
 30
0
  0
SPLINE
  5
A4B
330
A02
100
AcDbEntity
  8
Path
100
AcDbSpline
210
0
220
0
230
1
 70
8
 71
1
 72
4
 73
2
 74
0
 40
0
 40
0
 40
0.528015
 40
0.528015
 10
3.54
 20
-10.2179
 30
0
 10
3.96
 20
-10.5379
 30
0
  0
SPLINE
  5
A4C
330
A02
100
AcDbEntity
  8
Path
100
AcDbSpline
210
0
220
0
230
1
 70
8
 71
1
 72
4
 73
2
 74
0
 40
0
 40
0
 40
0.617738
 40
0.617738
 10
3.96
 20
-10.5379
 30
0
 10
4.5
 20
-10.8379
 30
0
  0
SPLINE
  5
A4D
330
A02
100
AcDbEntity
  8
Path
100
AcDbSpline
210
0
220
0
230
1
 70
8
 71
1
 72
4
 73
2
 74
0
 40
0
 40
0
 40
0.720139
 40
0.720139
 10
4.5
 20
-10.8379
 30
0
 10
5.15
 20
-11.1479
 30
0
  0
SPLINE
  5
A4E
330
A02
100
AcDbEntity
  8
Path
100
AcDbSpline
210
0
220
0
230
1
 70
8
 71
1
 72
4
 73
2
 74
0
 40
0
 40
0
 40
0.826378
 40
0.826378
 10
5.15
 20
-11.1479
 30
0
 10
5.92
 20
-11.4479
 30
0
  0
SPLINE
  5
A4F
330
A02
100
AcDbEntity
  8
Path
100
AcDbSpline
210
0
220
0
230
1
 70
8
 71
1
 72
4
 73
2
 74
0
 40
0
 40
0
 40
0.939202
 40
0.939202
 10
5.92
 20
-11.4479
 30
0
 10
6.81
 20
-11.7479
 30
0
  0
SPLINE
  5
A50
330
A02
100
AcDbEntity
  8
Path
100
AcDbSpline
210
0
220
0
230
1
 70
8
 71
1
 72
4
 73
2
 74
0
 40
0
 40
0
 40
1.0316
 40
1.0316
 10
6.81
 20
-11.7479
 30
0
 10
7.8
 20
-12.0379
 30
0
  0
SPLINE
  5
A51
330
A02
100
AcDbEntity
  8
Path
100
AcDbSpline
210
0
220
0
230
1
 70
8
 71
1
 72
4
 73
2
 74
0
 40
0
 40
0
 40
1.13508
 40
1.13508
 10
7.8
 20
-12.0379
 30
0
 10
8.9
 20
-12.3179
 30
0
  0
SPLINE
  5
A52
330
A02
100
AcDbEntity
  8
Path
100
AcDbSpline
210
0
220
0
230
1
 70
8
 71
1
 72
4
 73
2
 74
0
 40
0
 40
0
 40
1.24197
 40
1.24197
 10
8.9
 20
-12.3179
 30
0
 10
10.11
 20
-12.5979
 30
0
  0
SPLINE
  5
A53
330
A02
100
AcDbEntity
  8
Path
100
AcDbSpline
210
0
220
0
230
1
 70
8
 71
1
 72
4
 73
2
 74
0
 40
0
 40
0
 40
1.34536
 40
1.34536
 10
10.11
 20
-12.5979
 30
0
 10
11.43
 20
-12.8579
 30
0
  0
SPLINE
  5
A54
330
A02
100
AcDbEntity
  8
Path
100
AcDbSpline
210
0
220
0
230
1
 70
8
 71
1
 72
4
 73
2
 74
0
 40
0
 40
0
 40
1.43377
 40
1.43377
 10
11.43
 20
-12.8579
 30
0
 10
12.84
 20
-13.1179
 30
0
  0
SPLINE
  5
A55
330
A02
100
AcDbEntity
  8
Path
100
AcDbSpline
210
0
220
0
230
1
 70
8
 71
1
 72
4
 73
2
 74
0
 40
0
 40
0
 40
1.53056
 40
1.53056
 10
12.84
 20
-13.1179
 30
0
 10
14.35
 20
-13.3679
 30
0
  0
SPLINE
  5
A56
330
A02
100
AcDbEntity
  8
Path
100
AcDbSpline
210
0
220
0
230
1
 70
8
 71
1
 72
4
 73
2
 74
0
 40
0
 40
0
 40
1.6179
 40
1.6179
 10
14.35
 20
-13.3679
 30
0
 10
15.95
 20
-13.6079
 30
0
  0
SPLINE
  5
A57
330
A02
100
AcDbEntity
  8
Path
100
AcDbSpline
210
0
220
0
230
1
 70
8
 71
1
 72
4
 73
2
 74
0
 40
0
 40
0
 40
1.70558
 40
1.70558
 10
15.95
 20
-13.6079
 30
0
 10
17.64
 20
-13.8379
 30
0
  0
SPLINE
  5
A58
330
A02
100
AcDbEntity
  8
Path
100
AcDbSpline
210
0
220
0
230
1
 70
8
 71
1
 72
4
 73
2
 74
0
 40
0
 40
0
 40
1.79354
 40
1.79354
 10
17.64
 20
-13.8379
 30
0
 10
19.42
 20
-14.0579
 30
0
  0
SPLINE
  5
A59
330
A02
100
AcDbEntity
  8
Path
100
AcDbSpline
210
0
220
0
230
1
 70
8
 71
1
 72
4
 73
2
 74
0
 40
0
 40
0
 40
1.87072
 40
1.87072
 10
19.42
 20
-14.0579
 30
0
 10
21.28
 20
-14.2579
 30
0
  0
SPLINE
  5
A5A
330
A02
100
AcDbEntity
  8
Path
100
AcDbSpline
210
0
220
0
230
1
 70
8
 71
1
 72
4
 73
2
 74
0
 40
0
 40
0
 40
1.94928
 40
1.94928
 10
21.28
 20
-14.2579
 30
0
 10
23.22
 20
-14.4479
 30
0
  0
SPLINE
  5
A5B
330
A02
100
AcDbEntity
  8
Path
100
AcDbSpline
210
0
220
0
230
1
 70
8
 71
1
 72
4
 73
2
 74
0
 40
0
 40
0
 40
2.00721
 40
2.00721
 10
23.22
 20
-14.4479
 30
0
 10
25.22
 20
-14.6179
 30
0
  0
SPLINE
  5
A5C
330
A02
100
AcDbEntity
  8
Path
100
AcDbSpline
210
0
220
0
230
1
 70
8
 71
1
 72
4
 73
2
 74
0
 40
0
 40
0
 40
2.07617
 40
2.07617
 10
25.22
 20
-14.6179
 30
0
 10
27.29
 20
-14.7779
 30
0
  0
SPLINE
  5
A5D
330
A02
100
AcDbEntity
  8
Path
100
AcDbSpline
210
0
220
0
230
1
 70
8
 71
1
 72
4
 73
2
 74
0
 40
0
 40
0
 40
2.14457
 40
2.14457
 10
27.29
 20
-14.7779
 30
0
 10
29.43
 20
-14.9179
 30
0
  0
SPLINE
  5
A5E
330
A02
100
AcDbEntity
  8
Path
100
AcDbSpline
210
0
220
0
230
1
 70
8
 71
1
 72
4
 73
2
 74
0
 40
0
 40
0
 40
2.19276
 40
2.19276
 10
29.43
 20
-14.9179
 30
0
 10
31.62
 20
-15.0279
 30
0
  0
SPLINE
  5
A5F
330
A02
100
AcDbEntity
  8
Path
100
AcDbSpline
210
0
220
0
230
1
 70
8
 71
1
 72
4
 73
2
 74
0
 40
0
 40
0
 40
2.25222
 40
2.25222
 10
31.62
 20
-15.0279
 30
0
 10
33.87
 20
-15.1279
 30
0
  0
SPLINE
  5
A60
330
A02
100
AcDbEntity
  8
Path
100
AcDbSpline
210
0
220
0
230
1
 70
8
 71
1
 72
4
 73
2
 74
0
 40
0
 40
0
 40
2.29055
 40
2.29055
 10
33.87
 20
-15.1279
 30
0
 10
36.16
 20
-15.1779
 30
0
  0
SPLINE
  5
A61
330
A02
100
AcDbEntity
  8
Path
100
AcDbSpline
210
0
220
0
230
1
 70
8
 71
1
 72
4
 73
2
 74
0
 40
0
 40
0
 40
2.33009
 40
2.33009
 10
36.16
 20
-15.1779
 30
0
 10
38.49
 20
-15.1979
 30
0
  0
SPLINE
  5
A62
330
A02
100
AcDbEntity
  8
Path
100
AcDbSpline
210
0
220
0
230
1
 70
8
 71
1
 72
4
 73
2
 74
0
 40
0
 40
0
 40
2.36008
 40
2.36008
 10
38.49
 20
-15.1979
 30
0
 10
40.85
 20
-15.1779
 30
0
  0
SPLINE
  5
A63
330
A02
100
AcDbEntity
  8
Path
100
AcDbSpline
210
0
220
0
230
1
 70
8
 71
1
 72
4
 73
2
 74
0
 40
0
 40
0
 40
2.40133
 40
2.40133
 10
40.85
 20
-15.1779
 30
0
 10
43.25
 20
-15.0979
 30
0
  0
SPLINE
  5
A64
330
A02
100
AcDbEntity
  8
Path
100
AcDbSpline
210
0
220
0
230
1
 70
8
 71
1
 72
4
 73
2
 74
0
 40
0
 40
0
 40
2.41299
 40
2.41299
 10
43.25
 20
-15.0979
 30
0
 10
45.66
 20
-14.9779
 30
0
  0
SPLINE
  5
A65
330
A02
100
AcDbEntity
  8
Path
100
AcDbSpline
210
0
220
0
230
1
 70
8
 71
1
 72
4
 73
2
 74
0
 40
0
 40
0
 40
2.44591
 40
2.44591
 10
45.66
 20
-14.9779
 30
0
 10
48.1
 20
-14.8079
 30
0
  0
SPLINE
  5
A66
330
A02
100
AcDbEntity
  8
Path
100
AcDbSpline
210
0
220
0
230
1
 70
8
 71
1
 72
4
 73
2
 74
0
 40
0
 40
0
 40
2.45986
 40
2.45986
 10
48.1
 20
-14.8079
 30
0
 10
50.55
 20
-14.5879
 30
0
  0
SPLINE
  5
A67
330
A02
100
AcDbEntity
  8
Path
100
AcDbSpline
210
0
220
0
230
1
 70
8
 71
1
 72
4
 73
2
 74
0
 40
0
 40
0
 40
2.46272
 40
2.46272
 10
50.55
 20
-14.5879
 30
0
 10
53
 20
-14.3379
 30
0
  0
SPLINE
  5
A68
330
A02
100
AcDbEntity
  8
Path
100
AcDbSpline
210
0
220
0
230
1
 70
8
 71
1
 72
4
 73
2
 74
0
 40
0
 40
0
 40
2.4671
 40
2.4671
 10
53
 20
-14.3379
 30
0
 10
55.45
 20
-14.0479
 30
0
  0
SPLINE
  5
A69
330
A02
100
AcDbEntity
  8
Path
100
AcDbSpline
210
0
220
0
230
1
 70
8
 71
1
 72
4
 73
2
 74
0
 40
0
 40
0
 40
2.46953
 40
2.46953
 10
55.45
 20
-14.0479
 30
0
 10
57.9
 20
-13.7379
 30
0
  0
SPLINE
  5
A6A
330
A02
100
AcDbEntity
  8
Path
100
AcDbSpline
210
0
220
0
230
1
 70
8
 71
1
 72
4
 73
2
 74
0
 40
0
 40
0
 40
2.46089
 40
2.46089
 10
57.9
 20
-13.7379
 30
0
 10
60.34
 20
-13.4179
 30
0
  0
SPLINE
  5
A6B
330
A02
100
AcDbEntity
  8
Path
100
AcDbSpline
210
0
220
0
230
1
 70
8
 71
1
 72
4
 73
2
 74
0
 40
0
 40
0
 40
2.43387
 40
2.43387
 10
60.34
 20
-13.4179
 30
0
 10
62.75
 20
-13.0779
 30
0
  0
SPLINE
  5
A6C
330
A02
100
AcDbEntity
  8
Path
100
AcDbSpline
210
0
220
0
230
1
 70
8
 71
1
 72
4
 73
2
 74
0
 40
0
 40
0
 40
2.42396
 40
2.42396
 10
62.75
 20
-13.0779
 30
0
 10
65.15
 20
-12.7379
 30
0
  0
SPLINE
  5
A6D
330
A02
100
AcDbEntity
  8
Path
100
AcDbSpline
210
0
220
0
230
1
 70
8
 71
1
 72
4
 73
2
 74
0
 40
0
 40
0
 40
2.38437
 40
2.38437
 10
65.15
 20
-12.7379
 30
0
 10
67.51
 20
-12.3979
 30
0
  0
SPLINE
  5
A6E
330
A02
100
AcDbEntity
  8
Path
100
AcDbSpline
210
0
220
0
230
1
 70
8
 71
1
 72
4
 73
2
 74
0
 40
0
 40
0
 40
2.35468
 40
2.35468
 10
67.51
 20
-12.3979
 30
0
 10
69.84
 20
-12.0579
 30
0
  0
SPLINE
  5
A6F
330
A02
100
AcDbEntity
  8
Path
100
AcDbSpline
210
0
220
0
230
1
 70
8
 71
1
 72
4
 73
2
 74
0
 40
0
 40
0
 40
2.31366
 40
2.31366
 10
69.84
 20
-12.0579
 30
0
 10
72.13
 20
-11.7279
 30
0
  0
SPLINE
  5
A70
330
A02
100
AcDbEntity
  8
Path
100
AcDbSpline
210
0
220
0
230
1
 70
8
 71
1
 72
4
 73
2
 74
0
 40
0
 40
0
 40
2.27264
 40
2.27264
 10
72.13
 20
-11.7279
 30
0
 10
74.38
 20
-11.4079
 30
0
  0
SPLINE
  5
A71
330
A02
100
AcDbEntity
  8
Path
100
AcDbSpline
210
0
220
0
230
1
 70
8
 71
1
 72
4
 73
2
 74
0
 40
0
 40
0
 40
2.21183
 40
2.21183
 10
74.38
 20
-11.4079
 30
0
 10
76.57
 20
-11.0979
 30
0
  0
SPLINE
  5
A72
330
A02
100
AcDbEntity
  8
Path
100
AcDbSpline
210
0
220
0
230
1
 70
8
 71
1
 72
4
 73
2
 74
0
 40
0
 40
0
 40
2.15824
 40
2.15824
 10
76.57
 20
-11.0979
 30
0
 10
78.71
 20
-10.8179
 30
0
  0
SPLINE
  5
A73
330
A02
100
AcDbEntity
  8
Path
100
AcDbSpline
210
0
220
0
230
1
 70
8
 71
1
 72
4
 73
2
 74
0
 40
0
 40
0
 40
2.08753
 40
2.08753
 10
78.71
 20
-10.8179
 30
0
 10
80.78
 20
-10.5479
 30
0
  0
SPLINE
  5
A74
330
A02
100
AcDbEntity
  8
Path
100
AcDbSpline
210
0
220
0
230
1
 70
8
 71
1
 72
4
 73
2
 74
0
 40
0
 40
0
 40
2.02549
 40
2.02549
 10
80.78
 20
-10.5479
 30
0
 10
82.79
 20
-10.2979
 30
0
  0
SPLINE
  5
A75
330
A02
100
AcDbEntity
  8
Path
100
AcDbSpline
210
0
220
0
230
1
 70
8
 71
1
 72
4
 73
2
 74
0
 40
0
 40
0
 40
1.9425
 40
1.9425
 10
82.79
 20
-10.2979
 30
0
 10
84.72
 20
-10.0779
 30
0
  0
SPLINE
  5
A76
330
A02
100
AcDbEntity
  8
Path
100
AcDbSpline
210
0
220
0
230
1
 70
8
 71
1
 72
4
 73
2
 74
0
 40
0
 40
0
 40
1.87072
 40
1.87072
 10
84.72
 20
-10.0779
 30
0
 10
86.58
 20
-9.8779
 30
0
  0
SPLINE
  5
A77
330
A02
100
AcDbEntity
  8
Path
100
AcDbSpline
210
0
220
0
230
1
 70
8
 71
1
 72
4
 73
2
 74
0
 40
0
 40
0
 40
1.7881
 40
1.7881
 10
86.58
 20
-9.8779
 30
0
 10
88.36
 20
-9.7079
 30
0
  0
SPLINE
  5
A78
330
A02
100
AcDbEntity
  8
Path
100
AcDbSpline
210
0
220
0
230
1
 70
8
 71
1
 72
4
 73
2
 74
0
 40
0
 40
0
 40
1.69664
 40
1.69664
 10
88.36
 20
-9.7079
 30
0
 10
90.05
 20
-9.5579
 30
0
  0
SPLINE
  5
A79
330
A02
100
AcDbEntity
  8
Path
100
AcDbSpline
210
0
220
0
230
1
 70
8
 71
1
 72
4
 73
2
 74
0
 40
0
 40
0
 40
1.60449
 40
1.60449
 10
90.05
 20
-9.5579
 30
0
 10
91.65
 20
-9.4379
 30
0
  0
SPLINE
  5
A7A
330
A02
100
AcDbEntity
  8
Path
100
AcDbSpline
210
0
220
0
230
1
 70
8
 71
1
 72
4
 73
2
 74
0
 40
0
 40
0
 40
1.51331
 40
1.51331
 10
91.65
 20
-9.4379
 30
0
 10
93.16
 20
-9.3379
 30
0
  0
SPLINE
  5
A7B
330
A02
100
AcDbEntity
  8
Path
100
AcDbSpline
210
0
220
0
230
1
 70
8
 71
1
 72
4
 73
2
 74
0
 40
0
 40
0
 40
1.41227
 40
1.41227
 10
93.16
 20
-9.3379
 30
0
 10
94.57
 20
-9.2579
 30
0
  0
SPLINE
  5
A7C
330
A02
100
AcDbEntity
  8
Path
100
AcDbSpline
210
0
220
0
230
1
 70
8
 71
1
 72
4
 73
2
 74
0
 40
0
 40
0
 40
1.32095
 40
1.32095
 10
94.57
 20
-9.2579
 30
0
 10
95.89
 20
-9.2079
 30
0
  0
SPLINE
  5
A7D
330
A02
100
AcDbEntity
  8
Path
100
AcDbSpline
210
0
220
0
230
1
 70
8
 71
1
 72
4
 73
2
 74
0
 40
0
 40
0
 40
1.21037
 40
1.21037
 10
95.89
 20
-9.2079
 30
0
 10
97.1
 20
-9.1779
 30
0
  0
SPLINE
  5
A7E
330
A02
100
AcDbEntity
  8
Path
100
AcDbSpline
210
0
220
0
230
1
 70
8
 71
1
 72
4
 73
2
 74
0
 40
0
 40
0
 40
1.10018
 40
1.10018
 10
97.1
 20
-9.1779
 30
0
 10
98.2
 20
-9.1579
 30
0
  0
SPLINE
  5
A7F
330
A02
100
AcDbEntity
  8
Path
100
AcDbSpline
210
0
220
0
230
1
 70
8
 71
1
 72
4
 73
2
 74
0
 40
0
 40
0
 40
0.99
 40
0.99
 10
98.2
 20
-9.1579
 30
0
 10
99.19
 20
-9.1579
 30
0
  0
SPLINE
  5
A80
330
A02
100
AcDbEntity
  8
Path
100
AcDbSpline
210
0
220
0
230
1
 70
8
 71
1
 72
4
 73
2
 74
0
 40
0
 40
0
 40
0.890056
 40
0.890056
 10
99.19
 20
-9.1579
 30
0
 10
100.08
 20
-9.1679
 30
0
  0
SPLINE
  5
A81
330
A02
100
AcDbEntity
  8
Path
100
AcDbSpline
210
0
220
0
230
1
 70
8
 71
1
 72
4
 73
2
 74
0
 40
0
 40
0
 40
0.77026
 40
0.77026
 10
100.08
 20
-9.1679
 30
0
 10
100.85
 20
-9.1879
 30
0
  0
SPLINE
  5
A82
330
A02
100
AcDbEntity
  8
Path
100
AcDbSpline
210
0
220
0
230
1
 70
8
 71
1
 72
4
 73
2
 74
0
 40
0
 40
0
 40
0.650308
 40
0.650308
 10
100.85
 20
-9.1879
 30
0
 10
101.5
 20
-9.2079
 30
0
  0
SPLINE
  5
A83
330
A02
100
AcDbEntity
  8
Path
100
AcDbSpline
210
0
220
0
230
1
 70
8
 71
1
 72
4
 73
2
 74
0
 40
0
 40
0
 40
0.54037
 40
0.54037
 10
101.5
 20
-9.2079
 30
0
 10
102.04
 20
-9.2279
 30
0
  0
SPLINE
  5
A84
330
A02
100
AcDbEntity
  8
Path
100
AcDbSpline
210
0
220
0
230
1
 70
8
 71
1
 72
4
 73
2
 74
0
 40
0
 40
0
 40
0.420476
 40
0.420476
 10
102.04
 20
-9.2279
 30
0
 10
102.46
 20
-9.2479
 30
0
  0
SPLINE
  5
A85
330
A02
100
AcDbEntity
  8
Path
100
AcDbSpline
210
0
220
0
230
1
 70
8
 71
1
 72
4
 73
2
 74
0
 40
0
 40
0
 40
0.300666
 40
0.300666
 10
102.46
 20
-9.2479
 30
0
 10
102.76
 20
-9.2679
 30
0
  0
SPLINE
  5
A86
330
A02
100
AcDbEntity
  8
Path
100
AcDbSpline
210
0
220
0
230
1
 70
8
 71
1
 72
4
 73
2
 74
0
 40
0
 40
0
 40
0.180278
 40
0.180278
 10
102.76
 20
-9.2679
 30
0
 10
102.94
 20
-9.2779
 30
0
  0
SPLINE
  5
A87
330
A02
100
AcDbEntity
  8
Path
100
AcDbSpline
210
0
220
0
230
1
 70
8
 71
1
 72
4
 73
2
 74
0
 40
0
 40
0
 40
0.06
 40
0.06
 10
102.94
 20
-9.2779
 30
0
 10
103
 20
-9.2779
 30
0
  0
ENDSEC
  0
SECTION
  2
OBJECTS
  0
DICTIONARY
  5
F000
330
0
100
AcDbDictionary
  3
ACAD_GROUP
350
F001
  0
DICTIONARY
  5
F001
330
F000
100
AcDbDictionary
  0
ENDSEC
  0
EOF