<?xml version="1.0"?>
<!DOCTYPE svg PUBLIC "-//W3C//DTD SVG 1.1//EN" "http://www.w3.org/Graphics/SVG/1.1/DTD/svg11.dtd">
<svg width="102.0mm" height="14.2mm" viewBox="0 0 102.0 14.2" xmlns="http://www.w3.org/2000/svg" version="1.1">
<g id="Path" transform="translate(-2.000000,-1.997900) scale(1,-1)">
<path id="Path_w0000"  d="M 103.0 -9.2779 L 102.94 -9.267900000000001 L 102.76 -9.2279 L 102.46 -9.167900000000001 L 102.04 -9.077900000000001 L 101.5 -8.9679 L 100.85 -8.837900000000001 L 100.08 -8.6879 L 99.19 -8.517900000000001 L 98.2 -8.327900000000001 L 97.1 -8.1179 L 95.89 -7.897900000000001 L 94.57 -7.6679 L 93.16 -7.4179 L 91.65 -7.157900000000001 L 90.05 -6.897900000000001 L 88.36 -6.617900000000001 L 86.58 -6.347900000000001 L 84.72 -6.0579 L 82.79 -5.777900000000001 L 80.78 -5.497900000000001 L 78.71 -5.217900000000001 L 76.57 -4.937900000000001 L 74.38 -4.677900000000001 L 72.13 -4.4179 L 69.84 -4.177900000000001 L 67.51 -3.9479000000000006 L 65.15 -3.7479000000000005 L 62.75 -3.557900000000001 L 60.34 -3.397900000000001 L 57.9 -3.257900000000001 L 55.45 -3.147900000000001 L 53.0 -3.0779000000000005 L 50.55 -3.0279000000000007 L 48.1 -2.9979000000000005 L 45.66 -2.9979000000000005 L 43.25 -3.017900000000001 L 40.85 -3.0679000000000007 L 38.49 -3.1279000000000003 L 36.16 -3.2079000000000004 L 33.870000000000005 -3.3179000000000007 L 31.62 -3.437900000000001 L 29.43 -3.5779000000000005 L 27.29 -3.727900000000001 L 25.22 -3.897900000000001 L 23.22 -4.0879 L 21.28 -4.2879000000000005 L 19.42 -4.507900000000001 L 17.64 -4.727900000000001 L 15.95 -4.967900000000001 L 14.35 -5.217900000000001 L 12.84 -5.477900000000001 L 11.43 -5.737900000000001 L 10.11 -6.017900000000001 L 8.9 -6.2879000000000005 L 7.8 -6.567900000000001 L 6.8100000000000005 -6.857900000000001 L 5.92 -7.147900000000001 L 5.15 -7.437900000000001 L 4.5 -7.727900000000001 L 3.96 -8.0279 L 3.54 -8.337900000000001 L 3.24 -8.6479 L 3.06 -8.9579 L 3.0 -9.2779 L 3.06 -9.597900000000001 L 3.2399999999999998 -9.907900000000001 L 3.54 -10.2179 L 3.96 -10.5379 L 4.5 -10.837900000000001 L 5.15 -11.1479 L 5.92 -11.4479 L 6.8100000000000005 -11.747900000000001 L 7.8 -12.0379 L 8.9 -12.317900000000002 L 10.11 -12.597900000000001 L 11.43 -12.8579 L 12.84 -13.1179 L 14.35 -13.3679 L 15.95 -13.6079 L 17.64 -13.837900000000001 L 19.42 -14.0579 L 21.28 -14.257900000000001 L 23.22 -14.4479 L 25.22 -14.6179 L 27.29 -14.7779 L 29.43 -14.9179 L 31.62 -15.0279 L 33.870000000000005 -15.1279 L 36.16 -15.177900000000001 L 38.49 -15.1979 L 40.85 -15.177900000000001 L 43.25 -15.097900000000001 L 45.66 -14.977900000000002 L 48.1 -14.8079 L 50.55 -14.587900000000001 L 53.0 -14.337900000000001 L 55.45 -14.0479 L 57.9 -13.7379 L 60.34 -13.4179 L 62.75 -13.0779 L 65.15 -12.7379 L 67.51 -12.3979 L 69.84 -12.0579 L 72.13 -11.727900000000002 L 74.38 -11.407900000000001 L 76.57 -11.097900000000001 L 78.71 -10.817900000000002 L 80.78 -10.5479 L 82.79 -10.2979 L 84.72 -10.077900000000001 L 86.58 -9.8779 L 88.36 -9.7079 L 90.05 -9.5579 L 91.65 -9.4379 L 93.16 -9.337900000000001 L 94.57 -9.257900000000001 L 95.89 -9.2079 L 97.1 -9.177900000000001 L 98.2 -9.157900000000001 L 99.19 -9.157900000000001 L 100.08 -9.167900000000001 L 100.85 -9.1879 L 101.5 -9.2079 L 102.04 -9.2279 L 102.46 -9.247900000000001 L 102.76 -9.267900000000001 L 102.94 -9.2779 L 103.0 -9.2779 " stroke="#ff0000" stroke-width="0.35 px" style="stroke-width:0.35;stroke-miterlimit:4;stroke-dasharray:none;stroke-linecap:square;fill:none;fill-opacity:1;fill-rule: evenodd"/>
<title>b'Path'</title>
</g>
</svg>