999
FreeCAD v0.20 29603 (Git)
  0
SECTION
  2
HEADER
  9
$ACADVER
  1
AC1014
  9
$ACADMAINTVER
 70
     9
  9
$DWGCODEPAGE
  3
ANSI_1252
  9
$TEXTSTYLE
  7
STANDARD
  9
$DIMSTYLE
  2
STANDARD
  9
$DIMTXSTY
  7
STANDARD
  9
$CMLSTYLE
  2
STANDARD
  9
$LUNITS
 70
2
  9
$INSUNITS
 70
4
  9
$PEXTMAX
 10
50
 20
50
 30
50
  9
$PEXTMIN
 10
0
 20
0
 30
0
  9
$HANDSEED
  5
FFFF
  0
ENDSEC
  0
SECTION
  2
CLASSES
  0
CLASS
  1
ACDBDICTIONARYWDFLT
  2
AcDbDictionaryWithDefault
  3
ObjectDBX Classes
 90
        0
280
     0
281
     0
  0
CLASS
  1
XRECORD
  2
AcDbXrecord
  3
ObjectDBX Classes
 90
        0
280
     0
281
     0
  0
CLASS
  1
LWPOLYLINE
  2
AcDbPolyline
  3
ObjectDBX Classes
 90
        0
280
     0
281
     1
  0
ENDSEC
  0
SECTION
  2
TABLES
  0
TABLE
  2
VPORT
  5
20
330
0
100
AcDbSymbolTable
 70
     1
  0
VPORT
  5
21
330
20
100
AcDbSymbolTableRecord
100
AcDbViewportTableRecord
  2
*ACTIVE
 70
     0
  0
ENDTAB
  0
TABLE
  2
LTYPE
  5
22
330
0
100
AcDbSymbolTable
 70
     1
  0
LTYPE
  5
23
330
21
100
AcDbSymbolTableRecord
100
AcDbLinetypeTableRecord
  2
BYBLOCK
 70
     0
  3

 72
    65
 73
     0
 40
0.0
  0
LTYPE
  5
24
330
21
100
AcDbSymbolTableRecord
100
AcDbLinetypeTableRecord
  2
BYLAYER
 70
     0
  3

 72
    65
 73
     0
 40
0.0
  0
LTYPE
  5
25
330
21
100
AcDbSymbolTableRecord
100
AcDbLinetypeTableRecord
  2
CONTINUOUS
 70
     0
  3
Solid line
 72
    65
 73
     0
 40
0.0
  0
ENDTAB
  0
TABLE
  2
LAYER
  5
A49
330
0
100
AcDbSymbolTable
 70
3
  0
LAYER
  5
A4A
330
A49
100
AcDbSymbolTableRecord
100
AcDbLayerTableRecord
  2
0
 70
   0
 62
   7
  6
CONTINUOUS
  0
LAYER
  5
A4B
330
A49
100
AcDbSymbolTableRecord
100
AcDbLayerTableRecord
  2
none
 70
    0
 62
    7
  6
CONTINUOUS
  0
LAYER
  5
A4C
330
A49
100
AcDbSymbolTableRecord
100
AcDbLayerTableRecord
  2
Path
 70
    0
 62
    7
  6
CONTINUOUS
  0
ENDTAB
  0
TABLE
  2
STYLE
  5
70
330
0
100
AcDbSymbolTable
 70
     2
  0
STYLE
  5
71
330
70
100
AcDbSymbolTableRecord
100
AcDbTextStyleTableRecord
  2
STANDARD
 70
     0
 40
0.0
 41
1.0
 50
0.0
 71
     0
 42
2.5
  3
arial.ttf
  4

  0
STYLE
  5
72
330
70
100
AcDbSymbolTableRecord
100
AcDbTextStyleTableRecord
  2
ANNOTATIVE
 70
     0
 40
0.0
 41
1.0
 50
0.0
 71
     0
 42
2.5
  3
arial.ttf
  4

  0
ENDTAB
  0
TABLE
  2
VIEW
  5
73
330
0
100
AcDbSymbolTable
 70
     0
  0
ENDTAB
  0
TABLE
  2
UCS
  5
74
330
0
100
AcDbSymbolTable
 70
     0
  0
ENDTAB
  0
TABLE
  2
APPID
  5
75
330
0
100
AcDbSymbolTable
 70
     2
  0
APPID
  5
76
330
75
100
AcDbSymbolTableRecord
100
AcDbRegAppTableRecord
  2
ACAD
 70
     0
  0
APPID
  5
77
330
75
100
AcDbSymbolTableRecord
100
AcDbRegAppTableRecord
  2
ACADANNOTATIVE
 70
     0
  0
ENDTAB
  0
TABLE
  2
DIMSTYLE
  5
78
330
0
100
AcDbSymbolTable
 70
     2
  0
DIMSTYLE
105
79
330
78
100
AcDbSymbolTableRecord
100
AcDbDimStyleTableRecord
  2
STANDARD
 70
     0
  3

  4

  5

  6

  7

 40
0.0
 41
2.5
 42
0.625
 43
3.75
 44
1.25
 45
0.0
 46
0.0
 47
0.0
 48
0.0
140
2.5
141
2.5
142
0.0
143
0.03937007874016
144
1.0
145
0.0
146
1.0
147
0.625
 71
     0
 72
     0
 73
     0
 74
     0
 75
     0
 76
     0
 77
     1
 78
     8
170
     0
171
     3
172
     1
173
     0
174
     0
175
     0
176
     0
177
     0
178
     0
270
     2
271
     2
272
     2
273
     2
274
     3
340
71
275
     0
280
     0
281
     0
282
     0
283
     0
284
     8
285
     0
286
     0
287
     3
288
     0
  0
ENDTAB
  0
TABLE
  2
BLOCK_RECORD
  5
A01
330
0
100
AcDbSymbolTable
  70
5
  0
BLOCK_RECORD
  5
A02
330
A01
100
AcDbSymbolTableRecord
100
AcDbBlockTableRecord
  2
*MODEL_SPACE
  0
BLOCK_RECORD
  5
A03
330
A01
100
AcDbSymbolTableRecord
100
AcDbBlockTableRecord
  2
*PAPER_SPACE
  0
ENDTAB
  0
ENDSEC
  0
SECTION
  2
BLOCKS
  0
BLOCK
  5
A04
330
A02
100
AcDbEntity
  8
0
100
AcDbBlockBegin
  2
*MODEL_SPACE
 70
   0
 10
0
 20
0
 30
0
  3
*MODEL_SPACE
  1
 
  0
ENDBLK
  5
A05
330
A02
100
AcDbEntity
  8
0
100
AcDbBlockEnd
  0
BLOCK
  5
A06
330
A03
100
AcDbEntity
 67
1
  8
0
100
AcDbBlockBegin
  2
*PAPER_SPACE
 70
   0
 10
0
 20
0
 30
0
  3
*PAPER_SPACE
  1
 
  0
ENDBLK
  5
A07
330
A03
100
AcDbEntity
 67
    1
  8
0
100
AcDbBlockEnd
  0
ENDSEC
  0
SECTION
  2
ENTITIES
  0
SPLINE
  5
A08
330
A02
100
AcDbEntity
  8
Path
100
AcDbSpline
210
0
220
0
230
1
 70
8
 71
1
 72
4
 73
2
 74
0
 40
0
 40
0
 40
0.383275
 40
0.383275
 10
103
 20
-13.184
 30
0
 10
102.62
 20
-13.134
 30
0
  0
SPLINE
  5
A09
330
A02
100
AcDbEntity
  8
Path
100
AcDbSpline
210
0
220
0
230
1
 70
8
 71
1
 72
4
 73
2
 74
0
 40
0
 40
0
 40
1.11629
 40
1.11629
 10
102.62
 20
-13.134
 30
0
 10
101.52
 20
-12.944
 30
0
  0
SPLINE
  5
A0A
330
A02
100
AcDbEntity
  8
Path
100
AcDbSpline
210
0
220
0
230
1
 70
8
 71
1
 72
4
 73
2
 74
0
 40
0
 40
0
 40
1.77685
 40
1.77685
 10
101.52
 20
-12.944
 30
0
 10
99.78
 20
-12.584
 30
0
  0
SPLINE
  5
A0B
330
A02
100
AcDbEntity
  8
Path
100
AcDbSpline
210
0
220
0
230
1
 70
8
 71
1
 72
4
 73
2
 74
0
 40
0
 40
0
 40
2.32441
 40
2.32441
 10
99.78
 20
-12.584
 30
0
 10
97.51
 20
-12.084
 30
0
  0
SPLINE
  5
A0C
330
A02
100
AcDbEntity
  8
Path
100
AcDbSpline
210
0
220
0
230
1
 70
8
 71
1
 72
4
 73
2
 74
0
 40
0
 40
0
 40
2.82446
 40
2.82446
 10
97.51
 20
-12.084
 30
0
 10
94.75
 20
-11.484
 30
0
  0
SPLINE
  5
A0D
330
A02
100
AcDbEntity
  8
Path
100
AcDbSpline
210
0
220
0
230
1
 70
8
 71
1
 72
4
 73
2
 74
0
 40
0
 40
0
 40
3.28495
 40
3.28495
 10
94.75
 20
-11.484
 30
0
 10
91.53
 20
-10.834
 30
0
  0
SPLINE
  5
A0E
330
A02
100
AcDbEntity
  8
Path
100
AcDbSpline
210
0
220
0
230
1
 70
8
 71
1
 72
4
 73
2
 74
0
 40
0
 40
0
 40
3.7423
 40
3.7423
 10
91.53
 20
-10.834
 30
0
 10
87.85
 20
-10.154
 30
0
  0
SPLINE
  5
A0F
330
A02
100
AcDbEntity
  8
Path
100
AcDbSpline
210
0
220
0
230
1
 70
8
 71
1
 72
4
 73
2
 74
0
 40
0
 40
0
 40
4.16803
 40
4.16803
 10
87.85
 20
-10.154
 30
0
 10
83.75
 20
-9.404
 30
0
  0
SPLINE
  5
A10
330
A02
100
AcDbEntity
  8
Path
100
AcDbSpline
210
0
220
0
230
1
 70
8
 71
1
 72
4
 73
2
 74
0
 40
0
 40
0
 40
4.52492
 40
4.52492
 10
83.75
 20
-9.404
 30
0
 10
79.3
 20
-8.584
 30
0
  0
SPLINE
  5
A11
330
A02
100
AcDbEntity
  8
Path
100
AcDbSpline
210
0
220
0
230
1
 70
8
 71
1
 72
4
 73
2
 74
0
 40
0
 40
0
 40
4.78352
 40
4.78352
 10
79.3
 20
-8.584
 30
0
 10
74.6
 20
-7.694
 30
0
  0
SPLINE
  5
A12
330
A02
100
AcDbEntity
  8
Path
100
AcDbSpline
210
0
220
0
230
1
 70
8
 71
1
 72
4
 73
2
 74
0
 40
0
 40
0
 40
4.98143
 40
4.98143
 10
74.6
 20
-7.694
 30
0
 10
69.71
 20
-6.744
 30
0
  0
SPLINE
  5
A13
330
A02
100
AcDbEntity
  8
Path
100
AcDbSpline
210
0
220
0
230
1
 70
8
 71
1
 72
4
 73
2
 74
0
 40
0
 40
0
 40
5.07551
 40
5.07551
 10
69.71
 20
-6.744
 30
0
 10
64.73
 20
-5.764
 30
0
  0
SPLINE
  5
A14
330
A02
100
AcDbEntity
  8
Path
100
AcDbSpline
210
0
220
0
230
1
 70
8
 71
1
 72
4
 73
2
 74
0
 40
0
 40
0
 40
5.04803
 40
5.04803
 10
64.73
 20
-5.764
 30
0
 10
59.78
 20
-4.774
 30
0
  0
SPLINE
  5
A15
330
A02
100
AcDbEntity
  8
Path
100
AcDbSpline
210
0
220
0
230
1
 70
8
 71
1
 72
4
 73
2
 74
0
 40
0
 40
0
 40
4.88737
 40
4.88737
 10
59.78
 20
-4.774
 30
0
 10
54.98
 20
-3.854
 30
0
  0
SPLINE
  5
A16
330
A02
100
AcDbEntity
  8
Path
100
AcDbSpline
210
0
220
0
230
1
 70
8
 71
1
 72
4
 73
2
 74
0
 40
0
 40
0
 40
4.60062
 40
4.60062
 10
54.98
 20
-3.854
 30
0
 10
50.42
 20
-3.244
 30
0
  0
SPLINE
  5
A17
330
A02
100
AcDbEntity
  8
Path
100
AcDbSpline
210
0
220
0
230
1
 70
8
 71
1
 72
4
 73
2
 74
0
 40
0
 40
0
 40
4.5763
 40
4.5763
 10
50.42
 20
-3.244
 30
0
 10
45.85
 20
-3.004
 30
0
  0
SPLINE
  5
A18
330
A02
100
AcDbEntity
  8
Path
100
AcDbSpline
210
0
220
0
230
1
 70
8
 71
1
 72
4
 73
2
 74
0
 40
0
 40
0
 40
4.59
 40
4.59
 10
45.85
 20
-3.004
 30
0
 10
41.26
 20
-3.004
 30
0
  0
SPLINE
  5
A19
330
A02
100
AcDbEntity
  8
Path
100
AcDbSpline
210
0
220
0
230
1
 70
8
 71
1
 72
4
 73
2
 74
0
 40
0
 40
0
 40
4.53319
 40
4.53319
 10
41.26
 20
-3.004
 30
0
 10
36.73
 20
-3.174
 30
0
  0
SPLINE
  5
A1A
330
A02
100
AcDbEntity
  8
Path
100
AcDbSpline
210
0
220
0
230
1
 70
8
 71
1
 72
4
 73
2
 74
0
 40
0
 40
0
 40
4.44303
 40
4.44303
 10
36.73
 20
-3.174
 30
0
 10
32.3
 20
-3.514
 30
0
  0
SPLINE
  5
A1B
330
A02
100
AcDbEntity
  8
Path
100
AcDbSpline
210
0
220
0
230
1
 70
8
 71
1
 72
4
 73
2
 74
0
 40
0
 40
0
 40
4.30683
 40
4.30683
 10
32.3
 20
-3.514
 30
0
 10
28.02
 20
-3.994
 30
0
  0
SPLINE
  5
A1C
330
A02
100
AcDbEntity
  8
Path
100
AcDbSpline
210
0
220
0
230
1
 70
8
 71
1
 72
4
 73
2
 74
0
 40
0
 40
0
 40
4.1041
 40
4.1041
 10
28.02
 20
-3.994
 30
0
 10
23.96
 20
-4.594
 30
0
  0
SPLINE
  5
A1D
330
A02
100
AcDbEntity
  8
Path
100
AcDbSpline
210
0
220
0
230
1
 70
8
 71
1
 72
4
 73
2
 74
0
 40
0
 40
0
 40
3.88726
 40
3.88726
 10
23.96
 20
-4.594
 30
0
 10
20.14
 20
-5.314
 30
0
  0
SPLINE
  5
A1E
330
A02
100
AcDbEntity
  8
Path
100
AcDbSpline
210
0
220
0
230
1
 70
8
 71
1
 72
4
 73
2
 74
0
 40
0
 40
0
 40
3.61199
 40
3.61199
 10
20.14
 20
-5.314
 30
0
 10
16.62
 20
-6.124
 30
0
  0
SPLINE
  5
A1F
330
A02
100
AcDbEntity
  8
Path
100
AcDbSpline
210
0
220
0
230
1
 70
8
 71
1
 72
4
 73
2
 74
0
 40
0
 40
0
 40
3.31183
 40
3.31183
 10
16.62
 20
-6.124
 30
0
 10
13.43
 20
-7.014
 30
0
  0
SPLINE
  5
A20
330
A02
100
AcDbEntity
  8
Path
100
AcDbSpline
210
0
220
0
230
1
 70
8
 71
1
 72
4
 73
2
 74
0
 40
0
 40
0
 40
2.9852
 40
2.9852
 10
13.43
 20
-7.014
 30
0
 10
10.6
 20
-7.964
 30
0
  0
SPLINE
  5
A21
330
A02
100
AcDbEntity
  8
Path
100
AcDbSpline
210
0
220
0
230
1
 70
8
 71
1
 72
4
 73
2
 74
0
 40
0
 40
0
 40
2.6109
 40
2.6109
 10
10.6
 20
-7.964
 30
0
 10
8.18
 20
-8.944
 30
0
  0
SPLINE
  5
A22
330
A02
100
AcDbEntity
  8
Path
100
AcDbSpline
210
0
220
0
230
1
 70
8
 71
1
 72
4
 73
2
 74
0
 40
0
 40
0
 40
2.23164
 40
2.23164
 10
8.18
 20
-8.944
 30
0
 10
6.19
 20
-9.954
 30
0
  0
SPLINE
  5
A23
330
A02
100
AcDbEntity
  8
Path
100
AcDbSpline
210
0
220
0
230
1
 70
8
 71
1
 72
4
 73
2
 74
0
 40
0
 40
0
 40
1.82781
 40
1.82781
 10
6.19
 20
-9.954
 30
0
 10
4.66
 20
-10.954
 30
0
  0
SPLINE
  5
A24
330
A02
100
AcDbEntity
  8
Path
100
AcDbSpline
210
0
220
0
230
1
 70
8
 71
1
 72
4
 73
2
 74
0
 40
0
 40
0
 40
1.43684
 40
1.43684
 10
4.66
 20
-10.954
 30
0
 10
3.6
 20
-11.924
 30
0
  0
SPLINE
  5
A25
330
A02
100
AcDbEntity
  8
Path
100
AcDbSpline
210
0
220
0
230
1
 70
8
 71
1
 72
4
 73
2
 74
0
 40
0
 40
0
 40
1.03586
 40
1.03586
 10
3.6
 20
-11.924
 30
0
 10
3.07
 20
-12.814
 30
0
  0
SPLINE
  5
A26
330
A02
100
AcDbEntity
  8
Path
100
AcDbSpline
210
0
220
0
230
1
 70
8
 71
1
 72
4
 73
2
 74
0
 40
0
 40
0
 40
0.186815
 40
0.186815
 10
3.07
 20
-12.814
 30
0
 10
3.02
 20
-12.994
 30
0
  0
SPLINE
  5
A27
330
A02
100
AcDbEntity
  8
Path
100
AcDbSpline
210
0
220
0
230
1
 70
8
 71
1
 72
4
 73
2
 74
0
 40
0
 40
0
 40
0.19105
 40
0.19105
 10
3.02
 20
-12.994
 30
0
 10
3
 20
-13.184
 30
0
  0
SPLINE
  5
A28
330
A02
100
AcDbEntity
  8
Path
100
AcDbSpline
210
0
220
0
230
1
 70
8
 71
1
 72
4
 73
2
 74
0
 40
0
 40
0
 40
0.181108
 40
0.181108
 10
3
 20
-13.184
 30
0
 10
3.02
 20
-13.364
 30
0
  0
SPLINE
  5
A29
330
A02
100
AcDbEntity
  8
Path
100
AcDbSpline
210
0
220
0
230
1
 70
8
 71
1
 72
4
 73
2
 74
0
 40
0
 40
0
 40
0.187883
 40
0.187883
 10
3.02
 20
-13.364
 30
0
 10
3.1
 20
-13.534
 30
0
  0
SPLINE
  5
A2A
330
A02
100
AcDbEntity
  8
Path
100
AcDbSpline
210
0
220
0
230
1
 70
8
 71
1
 72
4
 73
2
 74
0
 40
0
 40
0
 40
0.0282843
 40
0.0282843
 10
3.1
 20
-13.534
 30
0
 10
3.12
 20
-13.554
 30
0
  0
SPLINE
  5
A2B
330
A02
100
AcDbEntity
  8
Path
100
AcDbSpline
210
0
220
0
230
1
 70
8
 71
1
 72
4
 73
2
 74
0
 40
0
 40
0
 40
0.2
 40
0.2
 10
3.12
 20
-13.554
 30
0
 10
3.24
 20
-13.714
 30
0
  0
SPLINE
  5
A2C
330
A02
100
AcDbEntity
  8
Path
100
AcDbSpline
210
0
220
0
230
1
 70
8
 71
1
 72
4
 73
2
 74
0
 40
0
 40
0
 40
0.927631
 40
0.927631
 10
3.24
 20
-13.714
 30
0
 10
3.93
 20
-14.334
 30
0
  0
SPLINE
  5
A2D
330
A02
100
AcDbEntity
  8
Path
100
AcDbSpline
210
0
220
0
230
1
 70
8
 71
1
 72
4
 73
2
 74
0
 40
0
 40
0
 40
1.65052
 40
1.65052
 10
3.93
 20
-14.334
 30
0
 10
5.32
 20
-15.224
 30
0
  0
SPLINE
  5
A2E
330
A02
100
AcDbEntity
  8
Path
100
AcDbSpline
210
0
220
0
230
1
 70
8
 71
1
 72
4
 73
2
 74
0
 40
0
 40
0
 40
2.15133
 40
2.15133
 10
5.32
 20
-15.224
 30
0
 10
7.23
 20
-16.214
 30
0
  0
SPLINE
  5
A2F
330
A02
100
AcDbEntity
  8
Path
100
AcDbSpline
210
0
220
0
230
1
 70
8
 71
1
 72
4
 73
2
 74
0
 40
0
 40
0
 40
2.58304
 40
2.58304
 10
7.23
 20
-16.214
 30
0
 10
9.59
 20
-17.264
 30
0
  0
SPLINE
  5
A30
330
A02
100
AcDbEntity
  8
Path
100
AcDbSpline
210
0
220
0
230
1
 70
8
 71
1
 72
4
 73
2
 74
0
 40
0
 40
0
 40
2.96557
 40
2.96557
 10
9.59
 20
-17.264
 30
0
 10
12.34
 20
-18.374
 30
0
  0
SPLINE
  5
A31
330
A02
100
AcDbEntity
  8
Path
100
AcDbSpline
210
0
220
0
230
1
 70
8
 71
1
 72
4
 73
2
 74
0
 40
0
 40
0
 40
3.26792
 40
3.26792
 10
12.34
 20
-18.374
 30
0
 10
15.41
 20
-19.494
 30
0
  0
SPLINE
  5
A32
330
A02
100
AcDbEntity
  8
Path
100
AcDbSpline
210
0
220
0
230
1
 70
8
 71
1
 72
4
 73
2
 74
0
 40
0
 40
0
 40
3.52324
 40
3.52324
 10
15.41
 20
-19.494
 30
0
 10
18.77
 20
-20.554
 30
0
  0
SPLINE
  5
A33
330
A02
100
AcDbEntity
  8
Path
100
AcDbSpline
210
0
220
0
230
1
 70
8
 71
1
 72
4
 73
2
 74
0
 40
0
 40
0
 40
3.73364
 40
3.73364
 10
18.77
 20
-20.554
 30
0
 10
22.37
 20
-21.544
 30
0
  0
SPLINE
  5
A34
330
A02
100
AcDbEntity
  8
Path
100
AcDbSpline
210
0
220
0
230
1
 70
8
 71
1
 72
4
 73
2
 74
0
 40
0
 40
0
 40
3.92005
 40
3.92005
 10
22.37
 20
-21.544
 30
0
 10
26.19
 20
-22.424
 30
0
  0
SPLINE
  5
A35
330
A02
100
AcDbEntity
  8
Path
100
AcDbSpline
210
0
220
0
230
1
 70
8
 71
1
 72
4
 73
2
 74
0
 40
0
 40
0
 40
4.02057
 40
4.02057
 10
26.19
 20
-22.424
 30
0
 10
30.14
 20
-23.174
 30
0
  0
SPLINE
  5
A36
330
A02
100
AcDbEntity
  8
Path
100
AcDbSpline
210
0
220
0
230
1
 70
8
 71
1
 72
4
 73
2
 74
0
 40
0
 40
0
 40
4.09575
 40
4.09575
 10
30.14
 20
-23.174
 30
0
 10
34.2
 20
-23.714
 30
0
  0
SPLINE
  5
A37
330
A02
100
AcDbEntity
  8
Path
100
AcDbSpline
210
0
220
0
230
1
 70
8
 71
1
 72
4
 73
2
 74
0
 40
0
 40
0
 40
4.15014
 40
4.15014
 10
34.2
 20
-23.714
 30
0
 10
38.34
 20
-24.004
 30
0
  0
SPLINE
  5
A38
330
A02
100
AcDbEntity
  8
Path
100
AcDbSpline
210
0
220
0
230
1
 70
8
 71
1
 72
4
 73
2
 74
0
 40
0
 40
0
 40
4.19005
 40
4.19005
 10
38.34
 20
-24.004
 30
0
 10
42.53
 20
-23.984
 30
0
  0
SPLINE
  5
A39
330
A02
100
AcDbEntity
  8
Path
100
AcDbSpline
210
0
220
0
230
1
 70
8
 71
1
 72
4
 73
2
 74
0
 40
0
 40
0
 40
4.31342
 40
4.31342
 10
42.53
 20
-23.984
 30
0
 10
46.83
 20
-23.644
 30
0
  0
SPLINE
  5
A3A
330
A02
100
AcDbEntity
  8
Path
100
AcDbSpline
210
0
220
0
230
1
 70
8
 71
1
 72
4
 73
2
 74
0
 40
0
 40
0
 40
4.42069
 40
4.42069
 10
46.83
 20
-23.644
 30
0
 10
51.19
 20
-22.914
 30
0
  0
SPLINE
  5
A3B
330
A02
100
AcDbEntity
  8
Path
100
AcDbSpline
210
0
220
0
230
1
 70
8
 71
1
 72
4
 73
2
 74
0
 40
0
 40
0
 40
4.72281
 40
4.72281
 10
51.19
 20
-22.914
 30
0
 10
55.79
 20
-21.844
 30
0
  0
SPLINE
  5
A3C
330
A02
100
AcDbEntity
  8
Path
100
AcDbSpline
210
0
220
0
230
1
 70
8
 71
1
 72
4
 73
2
 74
0
 40
0
 40
0
 40
4.99164
 40
4.99164
 10
55.79
 20
-21.844
 30
0
 10
60.62
 20
-20.584
 30
0
  0
SPLINE
  5
A3D
330
A02
100
AcDbEntity
  8
Path
100
AcDbSpline
210
0
220
0
230
1
 70
8
 71
1
 72
4
 73
2
 74
0
 40
0
 40
0
 40
5.16679
 40
5.16679
 10
60.62
 20
-20.584
 30
0
 10
65.61
 20
-19.244
 30
0
  0
SPLINE
  5
A3E
330
A02
100
AcDbEntity
  8
Path
100
AcDbSpline
210
0
220
0
230
1
 70
8
 71
1
 72
4
 73
2
 74
0
 40
0
 40
0
 40
5.22934
 40
5.22934
 10
65.61
 20
-19.244
 30
0
 10
70.67
 20
-17.924
 30
0
  0
SPLINE
  5
A3F
330
A02
100
AcDbEntity
  8
Path
100
AcDbSpline
210
0
220
0
230
1
 70
8
 71
1
 72
4
 73
2
 74
0
 40
0
 40
0
 40
5.19763
 40
5.19763
 10
70.67
 20
-17.924
 30
0
 10
75.72
 20
-16.694
 30
0
  0
SPLINE
  5
A40
330
A02
100
AcDbEntity
  8
Path
100
AcDbSpline
210
0
220
0
230
1
 70
8
 71
1
 72
4
 73
2
 74
0
 40
0
 40
0
 40
5.0393
 40
5.0393
 10
75.72
 20
-16.694
 30
0
 10
80.64
 20
-15.604
 30
0
  0
SPLINE
  5
A41
330
A02
100
AcDbEntity
  8
Path
100
AcDbSpline
210
0
220
0
230
1
 70
8
 71
1
 72
4
 73
2
 74
0
 40
0
 40
0
 40
4.77557
 40
4.77557
 10
80.64
 20
-15.604
 30
0
 10
85.33
 20
-14.704
 30
0
  0
SPLINE
  5
A42
330
A02
100
AcDbEntity
  8
Path
100
AcDbSpline
210
0
220
0
230
1
 70
8
 71
1
 72
4
 73
2
 74
0
 40
0
 40
0
 40
4.38622
 40
4.38622
 10
85.33
 20
-14.704
 30
0
 10
89.66
 20
-14.004
 30
0
  0
SPLINE
  5
A43
330
A02
100
AcDbEntity
  8
Path
100
AcDbSpline
210
0
220
0
230
1
 70
8
 71
1
 72
4
 73
2
 74
0
 40
0
 40
0
 40
3.90958
 40
3.90958
 10
89.66
 20
-14.004
 30
0
 10
93.54
 20
-13.524
 30
0
  0
SPLINE
  5
A44
330
A02
100
AcDbEntity
  8
Path
100
AcDbSpline
210
0
220
0
230
1
 70
8
 71
1
 72
4
 73
2
 74
0
 40
0
 40
0
 40
3.32268
 40
3.32268
 10
93.54
 20
-13.524
 30
0
 10
96.85
 20
-13.234
 30
0
  0
SPLINE
  5
A45
330
A02
100
AcDbEntity
  8
Path
100
AcDbSpline
210
0
220
0
230
1
 70
8
 71
1
 72
4
 73
2
 74
0
 40
0
 40
0
 40
2.66271
 40
2.66271
 10
96.85
 20
-13.234
 30
0
 10
99.51
 20
-13.114
 30
0
  0
SPLINE
  5
A46
330
A02
100
AcDbEntity
  8
Path
100
AcDbSpline
210
0
220
0
230
1
 70
8
 71
1
 72
4
 73
2
 74
0
 40
0
 40
0
 40
1.94003
 40
1.94003
 10
99.51
 20
-13.114
 30
0
 10
101.45
 20
-13.104
 30
0
  0
SPLINE
  5
A47
330
A02
100
AcDbEntity
  8
Path
100
AcDbSpline
210
0
220
0
230
1
 70
8
 71
1
 72
4
 73
2
 74
0
 40
0
 40
0
 40
1.16108
 40
1.16108
 10
101.45
 20
-13.104
 30
0
 10
102.61
 20
-13.154
 30
0
  0
SPLINE
  5
A48
330
A02
100
AcDbEntity
  8
Path
100
AcDbSpline
210
0
220
0
230
1
 70
8
 71
1
 72
4
 73
2
 74
0
 40
0
 40
0
 40
0.391152
 40
0.391152
 10
102.61
 20
-13.154
 30
0
 10
103
 20
-13.184
 30
0
  0
ENDSEC
  0
SECTION
  2
OBJECTS
  0
DICTIONARY
  5
F000
330
0
100
AcDbDictionary
  3
ACAD_GROUP
350
F001
  0
DICTIONARY
  5
F001
330
F000
100
AcDbDictionary
  0
ENDSEC
  0
EOF